<mxfile host="app.diagrams.net" modified="2023-09-18T10:47:38.716Z" agent="Mozilla/5.0 (Windows NT 10.0; Win64; x64) AppleWebKit/537.36 (KHTML, like Gecko) Chrome/117.0.0.0 Safari/537.36 Edg/117.0.2045.31" etag="GvRmAU_2uPcAX1SjU2rm" version="21.7.5" type="device" pages="2">
  <diagram name="fig4_workflow" id="JkTSTqZb4cMe0DSAW-0L">
    <mxGraphModel dx="984" dy="716" grid="1" gridSize="10" guides="1" tooltips="1" connect="1" arrows="1" fold="1" page="1" pageScale="1" pageWidth="827" pageHeight="1169" math="0" shadow="0">
      <root>
        <mxCell id="0" />
        <mxCell id="1" parent="0" />
        <mxCell id="EhzxrD0mUW9xP4D_JJkR-6" value="" style="group" parent="1" vertex="1" connectable="0">
          <mxGeometry x="150" y="250" width="867.27" height="360" as="geometry" />
        </mxCell>
        <mxCell id="ulNBL0fVCbVxpRuiZRTt-51" value="" style="rounded=0;whiteSpace=wrap;html=1;" parent="EhzxrD0mUW9xP4D_JJkR-6" vertex="1">
          <mxGeometry x="441.8167924528302" width="425.4532075471698" height="360" as="geometry" />
        </mxCell>
        <mxCell id="ulNBL0fVCbVxpRuiZRTt-52" value="" style="rounded=0;whiteSpace=wrap;html=1;" parent="EhzxrD0mUW9xP4D_JJkR-6" vertex="1">
          <mxGeometry width="425.4532075471698" height="360" as="geometry" />
        </mxCell>
        <mxCell id="ulNBL0fVCbVxpRuiZRTt-54" value="&lt;font style=&quot;font-size: 18px;&quot;&gt;model specification&lt;/font&gt;" style="rounded=1;whiteSpace=wrap;html=1;" parent="EhzxrD0mUW9xP4D_JJkR-6" vertex="1">
          <mxGeometry x="40.908962264150944" y="157" width="212.7266037735849" height="49.09090909090909" as="geometry" />
        </mxCell>
        <mxCell id="ulNBL0fVCbVxpRuiZRTt-55" style="rounded=0;orthogonalLoop=1;jettySize=auto;html=1;entryX=0.5;entryY=0;entryDx=0;entryDy=0;" parent="EhzxrD0mUW9xP4D_JJkR-6" source="ulNBL0fVCbVxpRuiZRTt-56" target="ulNBL0fVCbVxpRuiZRTt-54" edge="1">
          <mxGeometry relative="1" as="geometry" />
        </mxCell>
        <mxCell id="ulNBL0fVCbVxpRuiZRTt-56" value="&lt;font style=&quot;font-size: 18px;&quot;&gt;data&lt;/font&gt;" style="rounded=1;whiteSpace=wrap;html=1;" parent="EhzxrD0mUW9xP4D_JJkR-6" vertex="1">
          <mxGeometry x="107.27" y="63.82" width="80" height="49.09" as="geometry" />
        </mxCell>
        <mxCell id="ulNBL0fVCbVxpRuiZRTt-58" value="&lt;font style=&quot;font-size: 23px;&quot;&gt;HDDM&lt;/font&gt;" style="text;html=1;strokeColor=none;fillColor=none;align=center;verticalAlign=middle;whiteSpace=wrap;rounded=0;" parent="EhzxrD0mUW9xP4D_JJkR-6" vertex="1">
          <mxGeometry width="98.18150943396228" height="49.09090909090909" as="geometry" />
        </mxCell>
        <mxCell id="ulNBL0fVCbVxpRuiZRTt-59" value="&lt;font style=&quot;font-size: 23px;&quot;&gt;ArviZ&lt;/font&gt;" style="text;html=1;strokeColor=none;fillColor=none;align=center;verticalAlign=middle;whiteSpace=wrap;rounded=0;" parent="EhzxrD0mUW9xP4D_JJkR-6" vertex="1">
          <mxGeometry x="441.8167924528302" width="98.18150943396228" height="49.09090909090909" as="geometry" />
        </mxCell>
        <mxCell id="ulNBL0fVCbVxpRuiZRTt-84" style="edgeStyle=orthogonalEdgeStyle;rounded=0;orthogonalLoop=1;jettySize=auto;html=1;exitX=0.5;exitY=1;exitDx=0;exitDy=0;startArrow=classic;startFill=1;endArrow=none;endFill=0;" parent="EhzxrD0mUW9xP4D_JJkR-6" source="ulNBL0fVCbVxpRuiZRTt-69" edge="1">
          <mxGeometry relative="1" as="geometry">
            <mxPoint x="335.17135979180233" y="245.4545454545457" as="targetPoint" />
          </mxGeometry>
        </mxCell>
        <mxCell id="ulNBL0fVCbVxpRuiZRTt-69" value="&lt;font style=&quot;font-size: 20px;&quot;&gt;sampling&lt;/font&gt;" style="rounded=1;whiteSpace=wrap;html=1;" parent="EhzxrD0mUW9xP4D_JJkR-6" vertex="1">
          <mxGeometry x="269.9991509433962" y="103.90909090909092" width="130.90867924528303" height="49.09090909090909" as="geometry" />
        </mxCell>
        <mxCell id="ulNBL0fVCbVxpRuiZRTt-74" value="" style="group" parent="EhzxrD0mUW9xP4D_JJkR-6" vertex="1" connectable="0">
          <mxGeometry x="693.816" y="16.363636363636367" width="147.2722641509434" height="327.2727272727273" as="geometry" />
        </mxCell>
        <mxCell id="ulNBL0fVCbVxpRuiZRTt-75" value="" style="rounded=1;whiteSpace=wrap;html=1;" parent="ulNBL0fVCbVxpRuiZRTt-74" vertex="1">
          <mxGeometry x="-16.363584905660378" width="163.63584905660377" height="327.2727272727273" as="geometry" />
        </mxCell>
        <mxCell id="ulNBL0fVCbVxpRuiZRTt-76" value="&lt;p class=&quot;MsoNormal&quot;&gt;&lt;font style=&quot;font-size: 18px;&quot;&gt;inference&lt;/font&gt;&lt;/p&gt;" style="rounded=1;whiteSpace=wrap;html=1;fillColor=#dae8fc;strokeColor=#6c8ebf;" parent="ulNBL0fVCbVxpRuiZRTt-74" vertex="1">
          <mxGeometry x="4.0908962264150945" y="252.00000000000003" width="119.45416981132077" height="65.45454545454547" as="geometry" />
        </mxCell>
        <mxCell id="ulNBL0fVCbVxpRuiZRTt-77" value="&lt;p class=&quot;MsoNormal&quot;&gt;&lt;font style=&quot;font-size: 18px;&quot;&gt;ppc&lt;/font&gt;&lt;/p&gt;" style="rounded=1;whiteSpace=wrap;html=1;fillColor=#dae8fc;strokeColor=#6c8ebf;" parent="ulNBL0fVCbVxpRuiZRTt-74" vertex="1">
          <mxGeometry x="4.0908962264150945" y="173.45454545454547" width="119.45416981132077" height="65.45454545454547" as="geometry" />
        </mxCell>
        <mxCell id="ulNBL0fVCbVxpRuiZRTt-78" value="&lt;p class=&quot;MsoNormal&quot;&gt;&lt;font style=&quot;font-size: 18px;&quot;&gt;comparision&lt;/font&gt;&lt;br&gt;&lt;/p&gt;" style="rounded=1;whiteSpace=wrap;html=1;fillColor=#dae8fc;strokeColor=#6c8ebf;" parent="ulNBL0fVCbVxpRuiZRTt-74" vertex="1">
          <mxGeometry x="4.0908962264150945" y="91.63636363636364" width="119.45416981132077" height="65.45454545454547" as="geometry" />
        </mxCell>
        <mxCell id="ulNBL0fVCbVxpRuiZRTt-79" value="&lt;p class=&quot;MsoNormal&quot;&gt;&lt;font style=&quot;font-size: 18px;&quot;&gt;diagnosis&lt;/font&gt;&lt;br&gt;&lt;/p&gt;" style="rounded=1;whiteSpace=wrap;html=1;fillColor=#dae8fc;strokeColor=#6c8ebf;" parent="ulNBL0fVCbVxpRuiZRTt-74" vertex="1">
          <mxGeometry x="4.0908962264150945" y="9.81818181818182" width="119.45416981132077" height="65.45454545454547" as="geometry" />
        </mxCell>
        <mxCell id="ulNBL0fVCbVxpRuiZRTt-81" value="" style="group" parent="EhzxrD0mUW9xP4D_JJkR-6" vertex="1" connectable="0">
          <mxGeometry x="40.908962264150944" y="245.4545454545455" width="359.99886792452827" height="81.81818181818183" as="geometry" />
        </mxCell>
        <mxCell id="ulNBL0fVCbVxpRuiZRTt-80" value="" style="rounded=1;whiteSpace=wrap;html=1;" parent="ulNBL0fVCbVxpRuiZRTt-81" vertex="1">
          <mxGeometry width="359.99886792452827" height="81.81818181818183" as="geometry" />
        </mxCell>
        <mxCell id="ulNBL0fVCbVxpRuiZRTt-66" value="&lt;font style=&quot;font-size: 20px;&quot;&gt;&lt;b&gt;...&lt;/b&gt;&lt;/font&gt;" style="text;html=1;strokeColor=none;fillColor=none;align=center;verticalAlign=middle;whiteSpace=wrap;rounded=0;rotation=0;movable=1;resizable=1;rotatable=1;deletable=1;editable=1;locked=0;connectable=1;" parent="ulNBL0fVCbVxpRuiZRTt-81" vertex="1">
          <mxGeometry x="260.817358490566" y="12.181818181818183" width="98.18150943396225" height="49.09090909090909" as="geometry" />
        </mxCell>
        <mxCell id="ulNBL0fVCbVxpRuiZRTt-63" value="&lt;font style=&quot;font-size: 18px;&quot;&gt;m1&lt;/font&gt;" style="ellipse;whiteSpace=wrap;html=1;aspect=fixed;movable=1;resizable=1;rotatable=1;deletable=1;editable=1;locked=0;connectable=1;fillColor=#d5e8d4;strokeColor=#82b366;" parent="ulNBL0fVCbVxpRuiZRTt-81" vertex="1">
          <mxGeometry x="22.909018867924527" y="8.181818181818183" width="65.45418026979848" height="65.45418026979848" as="geometry" />
        </mxCell>
        <mxCell id="ulNBL0fVCbVxpRuiZRTt-65" value="&lt;font style=&quot;font-size: 18px;&quot;&gt;m2&lt;/font&gt;" style="ellipse;whiteSpace=wrap;html=1;aspect=fixed;movable=1;resizable=1;rotatable=1;deletable=1;editable=1;locked=0;connectable=1;fillColor=#d5e8d4;strokeColor=#82b366;" parent="ulNBL0fVCbVxpRuiZRTt-81" vertex="1">
          <mxGeometry x="116.18145283018866" y="8.181818181818183" width="65.45418026979848" height="65.45418026979848" as="geometry" />
        </mxCell>
        <mxCell id="ulNBL0fVCbVxpRuiZRTt-64" value="&lt;font style=&quot;font-size: 18px;&quot;&gt;m3&lt;/font&gt;" style="ellipse;whiteSpace=wrap;html=1;aspect=fixed;movable=1;resizable=1;rotatable=1;deletable=1;editable=1;locked=0;connectable=1;fillColor=#d5e8d4;strokeColor=#82b366;" parent="ulNBL0fVCbVxpRuiZRTt-81" vertex="1">
          <mxGeometry x="209.4538867924528" y="8.181818181818183" width="65.45418026979848" height="65.45418026979848" as="geometry" />
        </mxCell>
        <mxCell id="ulNBL0fVCbVxpRuiZRTt-83" style="edgeStyle=orthogonalEdgeStyle;rounded=0;orthogonalLoop=1;jettySize=auto;html=1;exitX=0.5;exitY=1;exitDx=0;exitDy=0;entryX=0.297;entryY=0;entryDx=0;entryDy=0;entryPerimeter=0;" parent="EhzxrD0mUW9xP4D_JJkR-6" source="ulNBL0fVCbVxpRuiZRTt-54" target="ulNBL0fVCbVxpRuiZRTt-80" edge="1">
          <mxGeometry relative="1" as="geometry" />
        </mxCell>
        <mxCell id="EhzxrD0mUW9xP4D_JJkR-7" style="edgeStyle=orthogonalEdgeStyle;rounded=0;orthogonalLoop=1;jettySize=auto;html=1;entryX=0.004;entryY=0.342;entryDx=0;entryDy=0;entryPerimeter=0;strokeWidth=3;" parent="EhzxrD0mUW9xP4D_JJkR-6" source="ulNBL0fVCbVxpRuiZRTt-85" target="ulNBL0fVCbVxpRuiZRTt-75" edge="1">
          <mxGeometry relative="1" as="geometry" />
        </mxCell>
        <mxCell id="ulNBL0fVCbVxpRuiZRTt-85" value="&lt;font style=&quot;font-size: 20px;&quot;&gt;InferenceData&lt;/font&gt;" style="rounded=1;whiteSpace=wrap;html=1;fillColor=#ffe6cc;strokeColor=#d79b00;" parent="EhzxrD0mUW9xP4D_JJkR-6" vertex="1">
          <mxGeometry x="486.8166509433962" y="103.90909090909092" width="155.45405660377358" height="49.09090909090909" as="geometry" />
        </mxCell>
        <mxCell id="ulNBL0fVCbVxpRuiZRTt-97" style="edgeStyle=orthogonalEdgeStyle;rounded=0;orthogonalLoop=1;jettySize=auto;html=1;entryX=0;entryY=0.5;entryDx=0;entryDy=0;fillColor=#f8cecc;strokeColor=#b85450;strokeWidth=5;" parent="EhzxrD0mUW9xP4D_JJkR-6" source="ulNBL0fVCbVxpRuiZRTt-69" target="ulNBL0fVCbVxpRuiZRTt-85" edge="1">
          <mxGeometry relative="1" as="geometry" />
        </mxCell>
        <mxCell id="ulNBL0fVCbVxpRuiZRTt-95" style="rounded=0;orthogonalLoop=1;jettySize=auto;html=1;exitX=0;exitY=0.75;exitDx=0;exitDy=0;entryX=0.935;entryY=0.295;entryDx=0;entryDy=0;entryPerimeter=0;" parent="EhzxrD0mUW9xP4D_JJkR-6" source="ulNBL0fVCbVxpRuiZRTt-78" target="ulNBL0fVCbVxpRuiZRTt-57" edge="1">
          <mxGeometry relative="1" as="geometry" />
        </mxCell>
        <mxCell id="ulNBL0fVCbVxpRuiZRTt-96" style="rounded=0;orthogonalLoop=1;jettySize=auto;html=1;exitX=0.959;exitY=0.695;exitDx=0;exitDy=0;entryX=0;entryY=0.5;entryDx=0;entryDy=0;exitPerimeter=0;" parent="EhzxrD0mUW9xP4D_JJkR-6" source="ulNBL0fVCbVxpRuiZRTt-57" target="ulNBL0fVCbVxpRuiZRTt-76" edge="1">
          <mxGeometry relative="1" as="geometry">
            <mxPoint x="589.0890566037737" y="288" as="sourcePoint" />
            <mxPoint x="695" y="287" as="targetPoint" />
          </mxGeometry>
        </mxCell>
        <mxCell id="ulNBL0fVCbVxpRuiZRTt-94" style="rounded=0;orthogonalLoop=1;jettySize=auto;html=1;endArrow=none;endFill=0;dashed=1;" parent="EhzxrD0mUW9xP4D_JJkR-6" edge="1">
          <mxGeometry relative="1" as="geometry">
            <mxPoint x="392" y="246" as="targetPoint" />
            <mxPoint x="531" y="247" as="sourcePoint" />
          </mxGeometry>
        </mxCell>
        <mxCell id="EhzxrD0mUW9xP4D_JJkR-9" value="" style="group" parent="EhzxrD0mUW9xP4D_JJkR-6" vertex="1" connectable="0">
          <mxGeometry x="465.3621698113207" y="212.2727272727273" width="196.3630188679246" height="105.73" as="geometry" />
        </mxCell>
        <mxCell id="ulNBL0fVCbVxpRuiZRTt-57" value="&lt;font style=&quot;font-size: 18px;&quot;&gt;m?&lt;/font&gt;" style="ellipse;whiteSpace=wrap;html=1;aspect=fixed;fillColor=#d5e8d4;strokeColor=#82b366;" parent="EhzxrD0mUW9xP4D_JJkR-9" vertex="1">
          <mxGeometry x="65.45433962264161" width="65.45418026979848" height="65.45418026979848" as="geometry" />
        </mxCell>
        <mxCell id="EhzxrD0mUW9xP4D_JJkR-5" value="&lt;font style=&quot;font-size: 11px;&quot;&gt;optimal model&lt;/font&gt;" style="text;html=1;strokeColor=none;fillColor=none;align=center;verticalAlign=middle;whiteSpace=wrap;rounded=0;" parent="EhzxrD0mUW9xP4D_JJkR-9" vertex="1">
          <mxGeometry x="43.18" y="54.730000000000004" width="110" height="49.09" as="geometry" />
        </mxCell>
      </root>
    </mxGraphModel>
  </diagram>
  <diagram id="PEgKehTtnkZwjkqmCZz_" name="fig4_v2">
    <mxGraphModel dx="836" dy="609" grid="1" gridSize="10" guides="1" tooltips="1" connect="1" arrows="1" fold="1" page="1" pageScale="1" pageWidth="827" pageHeight="1169" math="0" shadow="0">
      <root>
        <mxCell id="0" />
        <mxCell id="1" parent="0" />
        <mxCell id="SZgBmWzMcpxE7D7ot6mm-30" value="" style="group" parent="1" vertex="1" connectable="0">
          <mxGeometry x="60" y="200" width="706.67" height="320" as="geometry" />
        </mxCell>
        <mxCell id="SZgBmWzMcpxE7D7ot6mm-1" value="" style="rounded=0;whiteSpace=wrap;html=1;" parent="SZgBmWzMcpxE7D7ot6mm-30" vertex="1">
          <mxGeometry x="360.0016981132075" width="346.6683018867924" height="293.3333333333333" as="geometry" />
        </mxCell>
        <mxCell id="SZgBmWzMcpxE7D7ot6mm-2" value="" style="rounded=0;whiteSpace=wrap;html=1;" parent="SZgBmWzMcpxE7D7ot6mm-30" vertex="1">
          <mxGeometry width="346.6683018867924" height="293.3333333333333" as="geometry" />
        </mxCell>
        <mxCell id="SZgBmWzMcpxE7D7ot6mm-4" value="model specification" style="rounded=1;whiteSpace=wrap;html=1;" parent="SZgBmWzMcpxE7D7ot6mm-30" vertex="1">
          <mxGeometry x="33.33349056603773" y="132" width="173.3341509433962" height="40" as="geometry" />
        </mxCell>
        <mxCell id="SZgBmWzMcpxE7D7ot6mm-5" style="rounded=0;orthogonalLoop=1;jettySize=auto;html=1;entryX=0.5;entryY=0;entryDx=0;entryDy=0;" parent="SZgBmWzMcpxE7D7ot6mm-30" source="SZgBmWzMcpxE7D7ot6mm-6" target="SZgBmWzMcpxE7D7ot6mm-4" edge="1">
          <mxGeometry relative="1" as="geometry" />
        </mxCell>
        <mxCell id="SZgBmWzMcpxE7D7ot6mm-6" value="data" style="rounded=1;whiteSpace=wrap;html=1;" parent="SZgBmWzMcpxE7D7ot6mm-30" vertex="1">
          <mxGeometry x="66.66698113207546" y="53.33333333333333" width="106.66716981132075" height="40" as="geometry" />
        </mxCell>
        <mxCell id="SZgBmWzMcpxE7D7ot6mm-7" value="m?" style="ellipse;whiteSpace=wrap;html=1;aspect=fixed;" parent="SZgBmWzMcpxE7D7ot6mm-30" vertex="1">
          <mxGeometry x="426.668679245283" y="80" width="53.33333333333333" height="53.33333333333333" as="geometry" />
        </mxCell>
        <mxCell id="SZgBmWzMcpxE7D7ot6mm-8" value="&lt;font style=&quot;font-size: 16px;&quot;&gt;HDDM&lt;/font&gt;" style="text;html=1;strokeColor=none;fillColor=none;align=center;verticalAlign=middle;whiteSpace=wrap;rounded=0;" parent="SZgBmWzMcpxE7D7ot6mm-30" vertex="1">
          <mxGeometry width="80.00037735849055" height="40" as="geometry" />
        </mxCell>
        <mxCell id="SZgBmWzMcpxE7D7ot6mm-9" value="&lt;font style=&quot;font-size: 16px;&quot;&gt;ArviZ&lt;/font&gt;" style="text;html=1;strokeColor=none;fillColor=none;align=center;verticalAlign=middle;whiteSpace=wrap;rounded=0;" parent="SZgBmWzMcpxE7D7ot6mm-30" vertex="1">
          <mxGeometry x="360.0016981132075" width="80.00037735849055" height="40" as="geometry" />
        </mxCell>
        <mxCell id="SZgBmWzMcpxE7D7ot6mm-10" value="" style="group" parent="SZgBmWzMcpxE7D7ot6mm-30" vertex="1" connectable="0">
          <mxGeometry x="240.00113207547167" y="16" width="76.00035849056603" height="277.3333333333333" as="geometry" />
        </mxCell>
        <mxCell id="SZgBmWzMcpxE7D7ot6mm-11" value="" style="group;movable=1;resizable=1;rotatable=1;deletable=1;editable=1;locked=0;connectable=1;" parent="SZgBmWzMcpxE7D7ot6mm-10" vertex="1" connectable="0">
          <mxGeometry width="76.00035849056603" height="266.66666666666663" as="geometry" />
        </mxCell>
        <mxCell id="SZgBmWzMcpxE7D7ot6mm-12" value="" style="rounded=1;whiteSpace=wrap;html=1;movable=1;resizable=1;rotatable=1;deletable=1;editable=1;locked=0;connectable=1;" parent="SZgBmWzMcpxE7D7ot6mm-11" vertex="1">
          <mxGeometry width="76.00035849056603" height="266.66666666666663" as="geometry" />
        </mxCell>
        <mxCell id="SZgBmWzMcpxE7D7ot6mm-13" value="m1" style="ellipse;whiteSpace=wrap;html=1;aspect=fixed;movable=1;resizable=1;rotatable=1;deletable=1;editable=1;locked=0;connectable=1;" parent="SZgBmWzMcpxE7D7ot6mm-11" vertex="1">
          <mxGeometry x="9.333377358490566" y="13.33333333333333" width="53.33333333333332" height="53.33333333333332" as="geometry" />
        </mxCell>
        <mxCell id="SZgBmWzMcpxE7D7ot6mm-14" value="m3" style="ellipse;whiteSpace=wrap;html=1;aspect=fixed;movable=1;resizable=1;rotatable=1;deletable=1;editable=1;locked=0;connectable=1;" parent="SZgBmWzMcpxE7D7ot6mm-11" vertex="1">
          <mxGeometry x="9.333377358490566" y="145.33333333333331" width="53.33333333333332" height="53.33333333333332" as="geometry" />
        </mxCell>
        <mxCell id="SZgBmWzMcpxE7D7ot6mm-15" value="m2" style="ellipse;whiteSpace=wrap;html=1;aspect=fixed;movable=1;resizable=1;rotatable=1;deletable=1;editable=1;locked=0;connectable=1;" parent="SZgBmWzMcpxE7D7ot6mm-11" vertex="1">
          <mxGeometry x="9.333377358490566" y="75.99999999999999" width="53.33333333333332" height="53.33333333333332" as="geometry" />
        </mxCell>
        <mxCell id="SZgBmWzMcpxE7D7ot6mm-16" value="&lt;font style=&quot;font-size: 16px;&quot;&gt;...&lt;/font&gt;" style="text;html=1;strokeColor=none;fillColor=none;align=center;verticalAlign=middle;whiteSpace=wrap;rounded=0;rotation=90;movable=1;resizable=1;rotatable=1;deletable=1;editable=1;locked=0;connectable=1;" parent="SZgBmWzMcpxE7D7ot6mm-10" vertex="1">
          <mxGeometry y="217.33333333333331" width="80.00037735849055" height="40" as="geometry" />
        </mxCell>
        <mxCell id="SZgBmWzMcpxE7D7ot6mm-3" style="edgeStyle=orthogonalEdgeStyle;rounded=0;orthogonalLoop=1;jettySize=auto;html=1;entryX=0;entryY=0.5;entryDx=0;entryDy=0;" parent="SZgBmWzMcpxE7D7ot6mm-30" source="SZgBmWzMcpxE7D7ot6mm-4" target="SZgBmWzMcpxE7D7ot6mm-11" edge="1">
          <mxGeometry relative="1" as="geometry" />
        </mxCell>
        <mxCell id="SZgBmWzMcpxE7D7ot6mm-18" style="edgeStyle=orthogonalEdgeStyle;rounded=0;orthogonalLoop=1;jettySize=auto;html=1;entryX=0.01;entryY=0.817;entryDx=0;entryDy=0;entryPerimeter=0;startArrow=classic;startFill=1;endArrow=none;endFill=0;" parent="SZgBmWzMcpxE7D7ot6mm-30" source="SZgBmWzMcpxE7D7ot6mm-19" target="SZgBmWzMcpxE7D7ot6mm-11" edge="1">
          <mxGeometry relative="1" as="geometry" />
        </mxCell>
        <mxCell id="SZgBmWzMcpxE7D7ot6mm-19" value="sampling" style="rounded=1;whiteSpace=wrap;html=1;" parent="SZgBmWzMcpxE7D7ot6mm-30" vertex="1">
          <mxGeometry x="66.66698113207546" y="213.33333333333331" width="106.66716981132075" height="40" as="geometry" />
        </mxCell>
        <mxCell id="SZgBmWzMcpxE7D7ot6mm-20" style="edgeStyle=orthogonalEdgeStyle;rounded=0;orthogonalLoop=1;jettySize=auto;html=1;" parent="SZgBmWzMcpxE7D7ot6mm-30" source="SZgBmWzMcpxE7D7ot6mm-21" edge="1">
          <mxGeometry relative="1" as="geometry">
            <mxPoint x="573.336037735849" y="233.33333333333331" as="targetPoint" />
          </mxGeometry>
        </mxCell>
        <mxCell id="SZgBmWzMcpxE7D7ot6mm-21" value="InferenceData" style="rounded=1;whiteSpace=wrap;html=1;" parent="SZgBmWzMcpxE7D7ot6mm-30" vertex="1">
          <mxGeometry x="393.3351886792452" y="213.33333333333331" width="120.00056603773584" height="40" as="geometry" />
        </mxCell>
        <mxCell id="SZgBmWzMcpxE7D7ot6mm-17" style="edgeStyle=orthogonalEdgeStyle;rounded=0;orthogonalLoop=1;jettySize=auto;html=1;entryX=0.5;entryY=1;entryDx=0;entryDy=0;exitX=0.5;exitY=1;exitDx=0;exitDy=0;" parent="SZgBmWzMcpxE7D7ot6mm-30" source="SZgBmWzMcpxE7D7ot6mm-19" target="SZgBmWzMcpxE7D7ot6mm-21" edge="1">
          <mxGeometry relative="1" as="geometry">
            <Array as="points">
              <mxPoint x="120.00056603773584" y="320" />
              <mxPoint x="453.33547169811317" y="320" />
            </Array>
          </mxGeometry>
        </mxCell>
        <mxCell id="SZgBmWzMcpxE7D7ot6mm-22" style="rounded=0;orthogonalLoop=1;jettySize=auto;html=1;exitX=0;exitY=0.5;exitDx=0;exitDy=0;" parent="SZgBmWzMcpxE7D7ot6mm-30" source="SZgBmWzMcpxE7D7ot6mm-27" target="SZgBmWzMcpxE7D7ot6mm-7" edge="1">
          <mxGeometry relative="1" as="geometry" />
        </mxCell>
        <mxCell id="SZgBmWzMcpxE7D7ot6mm-23" style="rounded=0;orthogonalLoop=1;jettySize=auto;html=1;entryX=0;entryY=0.5;entryDx=0;entryDy=0;exitX=1;exitY=0;exitDx=0;exitDy=0;" parent="SZgBmWzMcpxE7D7ot6mm-30" source="SZgBmWzMcpxE7D7ot6mm-7" target="SZgBmWzMcpxE7D7ot6mm-29" edge="1">
          <mxGeometry relative="1" as="geometry">
            <mxPoint x="552.0026037735848" y="173.33333333333331" as="sourcePoint" />
            <mxPoint x="493.33566037735847" y="146.66666666666666" as="targetPoint" />
          </mxGeometry>
        </mxCell>
        <mxCell id="SZgBmWzMcpxE7D7ot6mm-24" value="" style="group" parent="SZgBmWzMcpxE7D7ot6mm-30" vertex="1" connectable="0">
          <mxGeometry x="570.669358490566" y="13.333333333333332" width="106.66716981132075" height="266.66666666666663" as="geometry" />
        </mxCell>
        <mxCell id="SZgBmWzMcpxE7D7ot6mm-25" value="" style="rounded=1;whiteSpace=wrap;html=1;" parent="SZgBmWzMcpxE7D7ot6mm-24" vertex="1">
          <mxGeometry width="106.66716981132075" height="266.66666666666663" as="geometry" />
        </mxCell>
        <mxCell id="SZgBmWzMcpxE7D7ot6mm-26" value="&lt;p class=&quot;MsoNormal&quot;&gt;model diagnosis&lt;/p&gt;" style="rounded=1;whiteSpace=wrap;html=1;" parent="SZgBmWzMcpxE7D7ot6mm-24" vertex="1">
          <mxGeometry x="3.3333490566037733" y="205.3333333333333" width="97.33379245283018" height="53.33333333333332" as="geometry" />
        </mxCell>
        <mxCell id="SZgBmWzMcpxE7D7ot6mm-27" value="&lt;p class=&quot;MsoNormal&quot;&gt;model comparision&lt;br&gt;&lt;/p&gt;" style="rounded=1;whiteSpace=wrap;html=1;" parent="SZgBmWzMcpxE7D7ot6mm-24" vertex="1">
          <mxGeometry x="3.3333490566037733" y="141.33333333333331" width="97.33379245283018" height="53.33333333333332" as="geometry" />
        </mxCell>
        <mxCell id="SZgBmWzMcpxE7D7ot6mm-28" value="&lt;p class=&quot;MsoNormal&quot;&gt;ppc&lt;br&gt;&lt;/p&gt;" style="rounded=1;whiteSpace=wrap;html=1;" parent="SZgBmWzMcpxE7D7ot6mm-24" vertex="1">
          <mxGeometry x="3.3333490566037733" y="74.66666666666666" width="97.33379245283018" height="53.33333333333332" as="geometry" />
        </mxCell>
        <mxCell id="SZgBmWzMcpxE7D7ot6mm-29" value="&lt;p class=&quot;MsoNormal&quot;&gt;inference&lt;br&gt;&lt;/p&gt;" style="rounded=1;whiteSpace=wrap;html=1;" parent="SZgBmWzMcpxE7D7ot6mm-24" vertex="1">
          <mxGeometry x="3.3333490566037733" y="7.999999999999998" width="97.33379245283018" height="53.33333333333332" as="geometry" />
        </mxCell>
        <mxCell id="SZgBmWzMcpxE7D7ot6mm-31" style="edgeStyle=orthogonalEdgeStyle;rounded=0;orthogonalLoop=1;jettySize=auto;html=1;exitX=1;exitY=1;exitDx=0;exitDy=0;entryX=1.001;entryY=0.955;entryDx=0;entryDy=0;entryPerimeter=0;" parent="SZgBmWzMcpxE7D7ot6mm-30" source="SZgBmWzMcpxE7D7ot6mm-1" target="SZgBmWzMcpxE7D7ot6mm-1" edge="1">
          <mxGeometry relative="1" as="geometry" />
        </mxCell>
      </root>
    </mxGraphModel>
  </diagram>
</mxfile>
